<svg width="19" height="15" viewBox="0 0 19 15" fill="none" xmlns="http://www.w3.org/2000/svg">
<path d="M15.4111 0.610244C14.6805 0.222082 13.8442 0 12.9532 0C11.3835 0 9.97301 0.689375 9.04206 1.76841C8.1048 0.689268 6.69906 0 5.12532 0C4.23517 0 3.39696 0.22144 2.66711 0.610244C1.10054 1.44043 0.0390625 3.04062 0.0390625 4.8887C0.0390625 5.4181 0.128474 5.92083 0.290591 6.39659C1.16061 10.166 6.73194 14.9207 9.04249 14.9207C11.2892 14.9207 16.9141 10.166 17.7879 6.39659C17.95 5.92083 18.0391 5.4181 18.0391 4.8887C18.0398 3.04062 16.9774 1.44043 15.4111 0.610244ZM16.402 5.96688C16.3515 6.10747 16.2205 6.19517 16.0762 6.19517C16.04 6.19517 16.0035 6.19517 15.9661 6.18253C15.785 6.12139 15.6912 5.92801 15.7516 5.74629C15.8491 5.45889 15.8992 5.17096 15.8992 4.8888C15.8992 3.86459 15.3163 2.9209 14.3837 2.43145C13.9383 2.19052 13.4594 2.06963 12.9533 2.06963C12.7628 2.06963 12.6123 1.92207 12.6123 1.72751C12.6123 1.54023 12.7627 1.38678 12.9533 1.38678C13.5684 1.38678 14.1592 1.53434 14.7043 1.82291C15.8636 2.43841 16.5832 3.61028 16.5832 4.8888C16.583 5.24998 16.5238 5.61234 16.402 5.96688Z" fill="#00A98F"/>
</svg>
