<svg width="19" height="19" viewBox="0 0 19 19" fill="none" xmlns="http://www.w3.org/2000/svg">
<path d="M0.269215 7.55521C0.388018 7.18772 0.713968 6.92671 1.0996 6.89196L6.33777 6.41632L8.40909 1.56821C8.56182 1.2129 8.90964 0.98291 9.2961 0.98291C9.68256 0.98291 10.0304 1.2129 10.1831 1.56904L12.2544 6.41632L17.4934 6.89196C17.8784 6.92754 18.2035 7.18772 18.323 7.55521C18.4425 7.9227 18.3321 8.32577 18.0409 8.57986L14.0815 12.0523L15.249 17.1954C15.3345 17.5735 15.1877 17.9644 14.8739 18.1912C14.7053 18.3131 14.508 18.3751 14.309 18.3751C14.1374 18.3751 13.9673 18.3288 13.8145 18.2375L9.2961 15.537L4.77934 18.2375C4.44882 18.4363 4.03217 18.4182 3.7191 18.1912C3.4052 17.9637 3.25856 17.5727 3.344 17.1954L4.51154 12.0523L0.552101 8.58055C0.260906 8.32577 0.149717 7.92339 0.269215 7.55521Z" fill="#FFC107"/>
</svg>
